<svg xmlns="http://www.w3.org/2000/svg" width="212.591" height="59.24" viewBox="0 0 5624.8 1567.4" shape-rendering="geometricPrecision" text-rendering="geometricPrecision" image-rendering="optimizeQuality" fill-rule="evenodd" clip-rule="evenodd"><path d="M804.92 930.1c-32.72 0-64.88-2.85-96.46-8.56-31.59-5.71-62.03-14.08-91.33-25.12-29.3-11.03-56.89-23.97-82.76-38.81-25.88-14.84-49.09-31.39-69.64-49.66l165.53-180.37c19.03 20.55 44.33 38.82 75.91 54.8 31.59 15.98 64.12 23.97 97.61 23.97 15.22 0 29.11-2.66 41.67-7.99 12.55-5.33 18.83-15.22 18.83-29.68 0-7.61-2.09-14.08-6.28-19.41-4.18-5.32-11.6-10.84-22.26-16.55-10.65-5.71-25.3-11.99-43.95-18.84-18.64-6.85-42.05-14.84-70.2-23.97-27.4-9.13-53.66-19.98-78.77-32.53-25.12-12.56-47.38-27.97-66.79-46.24-19.4-18.26-34.81-40.14-46.23-65.64-11.42-25.49-17.12-56.13-17.12-91.9 0-50.23 10.27-92.84 30.82-127.85 20.55-35.01 46.99-63.74 79.34-86.19 32.34-22.45 68.68-38.63 109.02-48.52 40.34-9.89 80.29-14.84 119.87-14.84 53.27 0 107.49 10.27 162.68 30.82 55.18 20.55 103.69 50.23 145.55 89.05L991.01 368.44c-18.27-22.83-40.73-40.14-67.36-51.94-26.64-11.79-50.61-17.69-71.92-17.69-19.79 0-35.77 2.85-47.95 8.56-12.18 5.71-18.27 15.03-18.27 27.97 0 12.18 6.28 21.31 18.84 27.4 12.56 6.08 32.92 13.7 61.07 22.83 28.92 9.13 59.37 19.79 91.33 31.96 31.98 12.18 61.47 27.97 88.48 47.38 27.02 19.4 49.28 43.19 66.79 71.35 17.5 28.16 26.25 63.16 26.25 105.02 0 48.71-9.7 91.14-29.11 127.29-19.4 36.15-44.9 66.21-76.48 90.18-31.59 23.98-67.17 41.86-106.75 53.66-39.58 11.79-79.91 17.69-121.01 17.69zm4108.5-70.56h171.24l-77.63 554.81H4835.8l77.62-554.81zm10.28-174.66c2.28-13.7 6.85-26.64 13.7-38.81 6.85-12.18 15.41-22.64 25.68-31.4 10.28-8.75 21.88-15.79 34.82-21.12 12.94-5.32 26.26-7.99 39.96-7.99 27.39 0 49.27 9.71 65.64 29.11 16.36 19.41 22.64 42.81 18.83 70.21-1.52 13.7-5.7 26.64-12.55 38.81-6.85 12.18-15.42 22.65-25.69 31.4-10.27 8.75-21.88 15.79-34.82 21.12-12.94 5.32-26.25 7.99-39.95 7.99-13.7 0-26.26-2.67-37.68-7.99-11.41-5.33-20.92-12.37-28.53-21.12-7.62-8.75-13.13-19.22-16.56-31.4-3.42-12.17-4.37-25.11-2.85-38.81zm575.36 337.91c-20.54-31.21-51.75-46.81-93.61-46.81-14.46 0-28.92 3.43-43.38 10.28s-22.83 18.64-25.11 35.39c-2.28 13.7 3.42 23.78 17.12 30.25 13.7 6.47 30.83 12.18 51.37 17.12 20.55 4.95 42.81 10.28 66.79 15.98 23.97 5.71 45.85 14.65 65.64 26.83 19.79 12.18 35.2 28.73 46.23 49.66 11.04 20.93 14.27 48.9 9.71 83.91-4.57 35.77-16.37 65.26-35.39 88.47-19.03 23.21-41.67 41.86-67.93 55.94-26.25 14.08-54.98 23.97-86.19 29.68-31.2 5.71-61.64 8.56-91.32 8.56-38.82 0-77.26-5.52-115.31-16.55-38.06-11.04-68.88-30.64-92.47-58.8l119.86-115.29c13.7 19.78 29.5 34.81 47.38 45.09 17.9 10.27 39.78 15.41 65.65 15.41 19.79 0 38.05-2.86 54.8-8.56 16.74-5.71 26.25-16.18 28.54-31.4 2.28-14.46-3.24-25.3-16.56-32.53-13.31-7.23-30.44-13.32-51.37-18.27-20.93-4.94-43.38-10.27-67.35-15.98-23.98-5.71-46.05-14.27-66.22-25.68-20.17-11.42-35.96-27.59-47.38-48.52-11.41-20.93-14.46-48.9-9.13-83.91 4.57-32.72 15.22-60.88 31.96-84.47 16.75-23.6 37.11-43 61.08-58.23 23.98-15.22 50.43-26.44 79.35-33.67 28.92-7.23 57.84-10.85 86.76-10.85 36.53 0 72.68 5.33 108.45 15.99 35.77 10.65 64.69 29.68 86.76 57.07l-118.73 103.89zm-4185.85 160.98v64.43h37.29c9.71 0 17.67-2.84 23.88-8.52 6.21-5.68 9.32-14.44 9.32-26.29 0-9.87-3.3-17.28-9.9-22.22-6.6-4.93-15.34-7.4-26.22-7.4h-34.37zm0 177.73v71.1h41.36c10.87 0 19.72-3.09 26.51-9.26 6.8-6.17 10.2-15.18 10.2-27.03 0-6.91-1.47-12.59-4.38-17.04-2.91-4.44-6.5-8.02-10.77-10.73-4.27-2.72-8.84-4.57-13.69-5.56-4.85-.98-9.42-1.48-13.69-1.48h-35.54zm140.4-62.95c9.71 2.97 19.22 7.78 28.54 14.44 9.32 6.67 17.67 15.06 25.05 25.18 7.38 10.12 13.2 21.85 17.47 35.18 4.28 13.33 6.41 28.14 6.41 44.43 0 28.64-4.56 52.71-13.68 72.21-9.13 19.5-21.17 35.3-36.12 47.39-14.95 12.1-32.04 20.74-51.27 25.92-19.22 5.19-38.93 7.78-59.12 7.78h-187v-524.32h169.52c16.7 0 34.47 1.61 53.3 4.82 18.84 3.21 36.22 9.62 52.14 19.25 15.92 9.63 29.13 23.7 39.61 42.21 10.49 18.52 15.73 42.83 15.73 72.95 0 28.14-5.53 51.34-16.6 69.61-11.07 18.27-25.73 31.85-43.98 40.73v2.22zm279.62-251.79h283.7v146.63h-153.21v45.18h143.89v137h-143.89v48.88h163.11v146.63h-293.6zm702.54 524.32h-138.64v-375.46h-101.37v-148.86h341.38v148.86h-101.37zm495.17 0H2792.3v-375.46h-101.37v-148.86h341.38v148.86h-101.37zm289.53-524.32h283.7v146.63h-153.21v45.18h143.89v137h-143.89v48.88h163.11v146.63h-293.6zm496.91 0h177.68c20.19 0 40.29 2.6 60.29 7.78s37.86 14.32 53.59 27.4c15.73 13.08 28.45 30.61 38.16 52.58 9.71 21.97 14.56 49.49 14.56 82.57 0 32.09-6.21 60.36-18.64 84.8-12.43 24.43-30.29 43.32-53.59 56.65l104.86 212.54h-159.62l-79.23-187.36h-4.07v187.36h-133.99v-524.32zm132.81 221.43h27.39c4.66 0 9.81-.49 15.44-1.48 5.62-.99 10.87-3.09 15.72-6.29 4.86-3.21 8.94-7.66 12.24-13.34 3.3-5.67 4.95-13.2 4.95-22.58 0-9.38-1.36-16.79-4.08-22.22-2.72-5.43-6.22-9.5-10.49-12.22-4.27-2.71-8.93-4.44-13.98-5.18-5.05-.74-9.7-1.11-13.97-1.11h-33.22v84.42zM1275.48 18.77h273.98v808.24h-273.98V18.77zm665.56 351.61l12.56 456.63h-253.44V18.77h355.04l146.12 434.94h5.71l126.71-434.94h366.46v808.24h-263.72l7.99-454.35-6.85-1.14-150.68 455.49h-191.79l-148.4-456.63h-5.71zm1180.4 196.35v260.28h-270.56V18.77h347.04c41.1 0 81.44 4.38 121.01 13.13 39.58 8.75 74.97 23.59 106.17 44.52 31.2 20.93 56.32 48.71 75.34 83.34 19.03 34.62 28.54 78.19 28.54 130.71 0 50.23-9.32 92.85-27.97 127.85-18.64 35.01-43.38 63.55-74.2 85.62-30.82 22.07-66.21 38.06-106.17 47.95-39.95 9.89-80.86 14.84-122.72 14.84h-76.48zm0-336.77V360.1h57.08c20.55 0 39.38-5.13 56.51-15.41 17.12-10.27 25.68-27.59 25.68-51.94 0-12.94-2.28-23.4-6.85-31.39-4.56-7.99-10.84-14.27-18.83-18.84-8-4.57-16.94-7.8-26.83-9.7-9.89-1.91-19.79-2.86-29.68-2.86h-57.08zM3629.61 3.72h273.99v650.93h268.27v263.47h-542.26V3.72zm626.73 0h555.96v255.72h-300.24v78.78h281.97v238.94h-281.97v85.24h319.64v255.72h-575.36V3.72z" fill="#fff" fill-rule="nonzero"/><path d="M-7 1162.87C1293.88 665.14 2700.46 566.15 4774.28 877l-48.52 398.42C2877.71 676.38 1526.83 877-7 1162.87z" fill="#0098db"/></svg>