<?xml version="1.0" encoding="UTF-8"?>
<!DOCTYPE svg PUBLIC "-//W3C//DTD SVG 1.1//EN" "http://www.w3.org/Graphics/SVG/1.1/DTD/svg11.dtd">
<!-- Creator: CorelDRAW -->
<svg xmlns="http://www.w3.org/2000/svg" xml:space="preserve" width="10.1336mm" height="2.8237mm" version="1.1" style="shape-rendering:geometricPrecision; text-rendering:geometricPrecision; image-rendering:optimizeQuality; fill-rule:evenodd; clip-rule:evenodd"
viewBox="0 0 1017.01 283.39"
 xmlns:xlink="http://www.w3.org/1999/xlink"
 xmlns:xodm="http://www.corel.com/coreldraw/odm/2003">
 <defs>
  <style type="text/css">
   <![CDATA[
    .fil1 {fill:#0098DB}
    .fil0 {fill:white;fill-rule:nonzero}
   ]]>
  </style>
 </defs>
 <g id="Layer_x0020_1">
  <metadata id="CorelCorpID_0Corel-Layer"/>
  <path class="fil0" d="M146.8 167.5c-5.91,0 -11.72,-0.52 -17.43,-1.55 -5.72,-1.03 -11.22,-2.55 -16.52,-4.55 -5.3,-2 -10.29,-4.34 -14.96,-7.02 -4.68,-2.69 -8.87,-5.68 -12.59,-8.98l29.93 -32.61c3.44,3.71 8.01,7.02 13.72,9.91 5.71,2.89 11.6,4.34 17.65,4.34 2.75,0 5.26,-0.48 7.54,-1.45 2.27,-0.96 3.4,-2.75 3.4,-5.37 0,-1.37 -0.38,-2.55 -1.13,-3.51 -0.76,-0.96 -2.1,-1.96 -4.02,-2.99 -1.93,-1.03 -4.58,-2.17 -7.95,-3.4 -3.37,-1.24 -7.61,-2.69 -12.7,-4.34 -4.95,-1.66 -9.7,-3.61 -14.24,-5.88 -4.55,-2.27 -8.57,-5.06 -12.07,-8.36 -3.51,-3.3 -6.29,-7.26 -8.36,-11.87 -2.07,-4.61 -3.1,-10.15 -3.1,-16.62 0,-9.07 1.86,-16.78 5.58,-23.11 3.71,-6.33 8.49,-11.52 14.34,-15.59 5.85,-4.05 12.41,-6.99 19.71,-8.77 7.3,-1.79 14.52,-2.68 21.68,-2.68 9.63,0 19.43,1.86 29.42,5.57 9.98,3.71 18.75,9.08 26.31,16.1l-30.55 31.17c-3.3,-4.12 -7.37,-7.26 -12.17,-9.39 -4.82,-2.13 -9.15,-3.2 -13.01,-3.2 -3.58,0 -6.47,0.52 -8.67,1.56 -2.21,1.02 -3.3,2.71 -3.3,5.06 0,2.2 1.13,3.84 3.4,4.95 2.27,1.1 5.95,2.48 11.04,4.12 5.23,1.66 10.74,3.58 16.52,5.78 5.78,2.21 11.11,5.06 16,8.57 4.89,3.5 8.91,7.81 12.07,12.9 3.16,5.1 4.75,11.42 4.75,18.99 0,8.81 -1.76,16.48 -5.26,23.02 -3.51,6.53 -8.12,11.96 -13.83,16.3 -5.71,4.34 -12.14,7.57 -19.3,9.7 -7.16,2.13 -14.45,3.2 -21.89,3.2zm742.86 -12.76l30.96 0 -14.03 100.31 -30.96 0 14.03 -100.31zm1.86 -31.58c0.42,-2.48 1.24,-4.82 2.48,-7.02 1.24,-2.21 2.79,-4.09 4.65,-5.68 1.86,-1.59 3.95,-2.86 6.29,-3.82 2.34,-0.95 4.75,-1.45 7.23,-1.45 4.96,0 8.91,1.76 11.87,5.27 2.95,3.51 4.09,7.74 3.4,12.7 -0.27,2.48 -1.03,4.82 -2.27,7.02 -1.24,2.2 -2.79,4.09 -4.65,5.68 -1.86,1.58 -3.95,2.85 -6.29,3.81 -2.34,0.96 -4.75,1.45 -7.23,1.45 -2.48,0 -4.75,-0.48 -6.81,-1.45 -2.06,-0.96 -3.78,-2.24 -5.16,-3.81 -1.37,-1.59 -2.37,-3.48 -2.99,-5.68 -0.62,-2.2 -0.79,-4.54 -0.52,-7.02zm104.03 61.1c-3.71,-5.65 -9.35,-8.47 -16.92,-8.47 -2.62,0 -5.23,0.62 -7.85,1.87 -2.61,1.23 -4.12,3.36 -4.54,6.39 -0.41,2.48 0.61,4.31 3.09,5.47 2.48,1.17 5.58,2.21 9.29,3.1 3.71,0.89 7.74,1.86 12.07,2.88 4.34,1.03 8.29,2.65 11.87,4.86 3.57,2.2 6.36,5.19 8.35,8.98 2,3.78 2.59,8.83 1.76,15.16 -0.82,6.47 -2.96,11.8 -6.39,16 -3.44,4.2 -7.54,7.57 -12.28,10.12 -4.75,2.55 -9.95,4.34 -15.59,5.37 -5.64,1.03 -11.14,1.55 -16.51,1.55 -7.02,0 -13.97,-1 -20.84,-2.99 -6.88,-2 -12.45,-5.54 -16.72,-10.64l21.67 -20.84c2.48,3.58 5.33,6.29 8.57,8.16 3.23,1.86 7.19,2.78 11.86,2.78 3.58,0 6.88,-0.51 9.92,-1.55 3.02,-1.03 4.75,-2.92 5.16,-5.68 0.41,-2.61 -0.59,-4.57 -3,-5.88 -2.4,-1.3 -5.5,-2.41 -9.28,-3.3 -3.78,-0.89 -7.85,-1.86 -12.17,-2.89 -4.34,-1.03 -8.33,-2.58 -11.97,-4.64 -3.65,-2.07 -6.5,-4.99 -8.57,-8.78 -2.07,-3.78 -2.62,-8.84 -1.66,-15.16 0.83,-5.92 2.76,-11.01 5.78,-15.27 3.03,-4.27 6.71,-7.78 11.05,-10.53 4.34,-2.75 9.11,-4.79 14.34,-6.09 5.23,-1.3 10.46,-1.96 15.69,-1.96 6.6,0 13.15,0.96 19.61,2.89 6.47,1.93 11.7,5.37 15.69,10.32l-21.47 18.79zm-756.84 29.1l0 11.65 6.74 0c1.76,0 3.19,-0.51 4.32,-1.55 1.12,-1.02 1.69,-2.61 1.69,-4.75 0,-1.79 -0.6,-3.13 -1.8,-4.02 -1.18,-0.89 -2.77,-1.33 -4.74,-1.33l-6.21 0zm0 32.14l0 12.86 7.48 0c1.97,0 3.56,-0.56 4.8,-1.68 1.22,-1.11 1.84,-2.74 1.84,-4.89 0,-1.24 -0.26,-2.28 -0.79,-3.08 -0.52,-0.8 -1.17,-1.45 -1.95,-1.94 -0.77,-0.49 -1.6,-0.83 -2.47,-1 -0.88,-0.18 -1.71,-0.27 -2.48,-0.27l-6.42 0zm25.38 -11.38c1.76,0.53 3.48,1.41 5.16,2.61 1.69,1.2 3.2,2.72 4.54,4.56 1.33,1.83 2.39,3.94 3.16,6.35 0.77,2.42 1.15,5.09 1.15,8.04 0,5.18 -0.82,9.52 -2.47,13.06 -1.66,3.52 -3.83,6.38 -6.53,8.57 -2.71,2.19 -5.79,3.74 -9.27,4.69 -3.47,0.93 -7.04,1.41 -10.69,1.41l-33.81 0 0 -94.8 30.65 0c3.02,0 6.23,0.29 9.63,0.86 3.41,0.58 6.55,1.75 9.43,3.48 2.88,1.75 5.27,4.29 7.16,7.64 1.9,3.34 2.85,7.74 2.85,13.19 0,5.09 -1,9.28 -3,12.59 -2.01,3.3 -4.66,5.76 -7.96,7.37l0 0.4zm50.56 -45.52l51.29 0 0 26.51 -27.7 0 0 8.17 26.01 0 0 24.77 -26.01 0 0 8.84 29.49 0 0 26.52 -53.08 0 0 -94.8zm127.03 94.8l-25.07 0 0 -67.89 -18.33 0 0 -26.91 61.72 0 0 26.91 -18.33 0 0 67.89zm89.53 0l-25.07 0 0 -67.89 -18.33 0 0 -26.91 61.72 0 0 26.91 -18.33 0 0 67.89zm52.35 -94.8l51.29 0 0 26.51 -27.7 0 0 8.17 26.01 0 0 24.77 -26.01 0 0 8.84 29.5 0 0 26.52 -53.09 0 0 -94.8zm89.84 0l32.13 0c3.65,0 7.29,0.46 10.91,1.41 3.61,0.93 6.84,2.59 9.68,4.95 2.84,2.37 5.15,5.54 6.9,9.51 1.75,3.96 2.63,8.94 2.63,14.92 0,5.8 -1.12,10.92 -3.37,15.34 -2.25,4.42 -5.48,7.83 -9.68,10.25l18.96 38.43 -28.86 0 -14.32 -33.88 -0.74 0 0 33.88 -24.23 0 0 -94.8zm24.02 40.03l4.95 0c0.84,0 1.78,-0.09 2.8,-0.27 1.01,-0.18 1.96,-0.56 2.84,-1.13 0.87,-0.58 1.62,-1.38 2.21,-2.41 0.6,-1.03 0.9,-2.39 0.9,-4.08 0,-1.7 -0.25,-3.04 -0.74,-4.02 -0.49,-0.97 -1.12,-1.72 -1.9,-2.21 -0.77,-0.49 -1.62,-0.8 -2.53,-0.93 -0.91,-0.13 -1.76,-0.2 -2.53,-0.2l-6 0 0 15.26zm-465.53 -225.91l49.54 0 0 146.13 -49.54 0 0 -146.13zm120.34 63.58l2.27 82.56 -45.82 0 0 -146.13 64.19 0 26.42 78.64 1.03 0 22.91 -78.64 66.26 0 0 146.13 -47.68 0 1.45 -82.15 -1.24 -0.21 -27.25 82.36 -34.67 0 -26.83 -82.56 -1.03 0zm213.43 35.5l0 47.06 -48.93 0 0 -146.13 62.76 0c7.43,0 14.72,0.79 21.88,2.38 7.16,1.58 13.56,4.27 19.2,8.05 5.64,3.78 10.18,8.8 13.62,15.06 3.44,6.26 5.16,14.14 5.16,23.63 0,9.08 -1.69,16.79 -5.06,23.11 -3.37,6.33 -7.84,11.49 -13.41,15.49 -5.58,3.99 -11.97,6.88 -19.2,8.67 -7.23,1.79 -14.62,2.68 -22.19,2.68l-13.83 0zm0 -60.89l0 23.53 10.32 0c3.72,0 7.13,-0.93 10.22,-2.79 3.1,-1.86 4.65,-4.99 4.65,-9.39 0,-2.34 -0.41,-4.23 -1.23,-5.67 -0.83,-1.45 -1.97,-2.58 -3.41,-3.41 -1.45,-0.82 -3.06,-1.41 -4.85,-1.76 -1.79,-0.34 -3.58,-0.51 -5.37,-0.51l-10.32 0zm91.88 -40.91l49.54 0 0 117.69 48.5 0 0 47.64 -98.04 0 0 -165.33zm113.32 0l100.52 0 0 46.24 -54.28 0 0 14.24 50.98 0 0 43.21 -50.98 0 0 15.42 57.8 0 0 46.24 -104.03 0 0 -165.33z"/>
  <path class="fil1" d="M-0 209.58c235.21,-89.99 489.54,-107.89 864.5,-51.69l-8.77 72.04c-334.14,-108.31 -578.4,-72.04 -855.72,-20.35z"/>
 </g>
</svg>
